<?xml version="1.0" encoding="UTF-8" standalone="no"?>
<svg
   xml:space="preserve"
   enable-background="new 0 0 240 234"
   viewBox="0 0 235.1267 236.85295"
   height="6.2667341cm"
   width="6.2210603cm"
   y="0px"
   x="0px"
   sodipodi:docname="SciML.svg"
   inkscape:version="1.1.2 (b8e25be8, 2022-02-05)"
   inkscape:export-ydpi="144"
   inkscape:export-xdpi="144"
   inkscape:export-filename="/Users/rrosa/Downloads/SciMLCon_logo.png"
   id="svg2"
   version="1.1"
   xmlns:inkscape="http://www.inkscape.org/namespaces/inkscape"
   xmlns:sodipodi="http://sodipodi.sourceforge.net/DTD/sodipodi-0.dtd"
   xmlns="http://www.w3.org/2000/svg"
   xmlns:svg="http://www.w3.org/2000/svg"
   xmlns:rdf="http://www.w3.org/1999/02/22-rdf-syntax-ns#"
   xmlns:cc="http://creativecommons.org/ns#"
   xmlns:dc="http://purl.org/dc/elements/1.1/"><metadata
   id="metadata845"><rdf:RDF><cc:Work
       rdf:about=""><dc:format>image/svg+xml</dc:format><dc:type
         rdf:resource="http://purl.org/dc/dcmitype/StillImage" /></cc:Work></rdf:RDF></metadata><defs
   id="defs843">
		
		
		
	
			
				
			
				
			
				
		
		
		</defs>
<sodipodi:namedview
   inkscape:document-rotation="0"
   inkscape:window-y="38"
   inkscape:window-x="0"
   inkscape:window-width="1507"
   inkscape:window-maximized="0"
   inkscape:window-height="836"
   inkscape:current-layer="layer3"
   inkscape:pageshadow="2"
   inkscape:pageopacity="0.0"
   inkscape:document-units="px"
   fit-margin-right="2"
   fit-margin-bottom="2"
   showgrid="false"
   pagecolor="#ffffff"
   inkscape:zoom="0.5"
   inkscape:cy="94"
   inkscape:cx="510"
   id="base"
   fit-margin-top="2"
   fit-margin-left="2"
   borderopacity="1.0"
   bordercolor="#666666"
   inkscape:pagecheckerboard="0"
   lock-margins="true"
   units="cm"
   scale-x="5">
	</sodipodi:namedview>
<g
   inkscape:label="logo"
   inkscape:groupmode="layer"
   transform="translate(-198.94725,-569.16515)"
   id="layer1">
	<g
   transform="matrix(1.25,0,0,-1.25,-13.932405,1105.8111)"
   id="g899"><path
     id="path4259"
     inkscape:connector-curvature="0"
     fill="#d66661"
     stroke="#c93d39"
     stroke-width="3"
     stroke-linecap="round"
     stroke-linejoin="round"
     d="m 301.749,405.0653 c -7.269,5.754 -15.244,10.903 -24.027,14.032 -14.941,5.35 -31.698,2.019 -43.812,-8.177 -10.903,-9.186 -17.565,-22.713 -20.493,-36.745 -5.552,-27.256 2.523,-55.926 16.354,-80.054 2.524,-4.441 5.249,-8.781 6.764,-13.628 1.514,-4.845 1.514,-10.397 -1.211,-14.737 -2.524,-4.138 -7.268,-6.459 -12.013,-7.37 -9.489,-1.716 -19.483,2.12 -26.348,8.884 -6.863,6.763 -10.902,16.05 -12.316,25.539 -1.514,9.49 -0.606,19.282 1.111,28.771 3.23,17.666 9.792,34.625 17.263,50.878 6.764,14.739 14.436,29.78 26.55,40.884 10.498,9.691 24.43,14.436 38.664,12.417 13.627,-2.018 24.63,-10.599 33.514,-20.694" /><path
     id="path4263"
     inkscape:connector-curvature="0"
     fill="#6bab5b"
     stroke="#3b972f"
     stroke-width="3"
     stroke-linecap="round"
     stroke-linejoin="round"
     d="m 304.373,247.5843 c 10.903,4.745 22.816,9.187 31.497,17.666 7.773,7.673 12.82,18.07 14.234,28.871 2.02,15.851 -3.534,32.203 -13.427,44.721 -9.894,12.518 -24.027,21.402 -39.169,26.449 -15.142,5.048 -31.294,6.662 -47.244,6.36 -4.24,-0.101 -8.58,-0.303 -12.82,0.707 -4.139,1.009 -8.177,3.533 -9.892,7.47 -1.514,3.432 -1.009,7.369 0,10.902 4.341,15.041 19.281,26.348 34.827,26.348 11.71,0 22.915,-5.754 31.799,-13.426 8.884,-7.672 15.848,-17.262 23.016,-26.55 9.288,-12.114 19.08,-23.925 26.549,-37.25 7.47,-13.326 12.518,-28.468 11.409,-43.711 -0.809,-12.215 -6.058,-24.53 -15.345,-32.707 -10.398,-9.287 -21.806,-13.326 -35.434,-15.85" /><path
     id="path4255"
     inkscape:connector-curvature="0"
     fill="#aa7dc0"
     stroke="#945bb0"
     stroke-width="4"
     stroke-linecap="round"
     stroke-linejoin="round"
     d="m 341.523,317.2403 c -0.706,1.514 -1.514,3.028 -2.423,4.542 -3.331,5.248 -8.984,10.095 -15.142,8.884 -5.552,-1.11 -8.783,-6.663 -11.407,-11.609 -7.975,-14.839 -16.757,-29.377 -28.366,-41.591 -11.609,-12.215 -26.147,-22.007 -42.602,-25.541 -15.848,-3.431 -32.909,0.405 -45.528,10.702 -18.07,14.738 -20.895,39.37 -15.647,60.771 -1.412,-2.423 -2.928,-5.249 -3.836,-7.975 -1.111,-3.432 -1.918,-6.966 -2.322,-10.499 -0.808,-7.166 -0.202,-14.435 1.817,-21.401 4.139,-14.133 14.436,-26.549 27.458,-33.313 24.027,-12.516 52.595,-4.541 77.63,-0.404 7.37,1.212 14.738,2.423 21.905,4.441 13.83,3.838 27.459,10.802 35.332,22.714 7.875,11.71 8.986,27.559 3.131,40.279 z" /></g>
</g><g
   style="display:none"
   inkscape:label="text"
   id="layer2"
   inkscape:groupmode="layer"
   transform="translate(-3.8671467,-1.573543)"><text
     id="text849"
     y="777.75757"
     x="444.90045"
     style="font-style:normal;font-variant:normal;font-weight:normal;font-stretch:normal;font-size:128px;line-height:0.85;font-family:'Gurmukhi MN';-inkscape-font-specification:'Gurmukhi MN, Normal';font-variant-ligatures:normal;font-variant-caps:normal;font-variant-numeric:normal;font-variant-east-asian:normal;letter-spacing:0px;stroke-width:1"
     xml:space="preserve"
     transform="translate(-195.0801,-567.59161)"><tspan
       style="stroke-width:1"
       y="777.75757"
       x="444.90045"
       id="tspan886"
       sodipodi:role="line">SciML<tspan
   id="tspan888"
   style="font-style:normal;font-variant:normal;font-weight:normal;font-stretch:normal;font-size:128px;font-family:'Gurmukhi MN';-inkscape-font-specification:'Gurmukhi MN, Normal';font-variant-ligatures:normal;font-variant-caps:normal;font-variant-numeric:normal;font-variant-east-asian:normal;fill:#945bb0;fill-opacity:1;stroke-width:1">Con</tspan></tspan></text></g><g
   style="display:inline"
   inkscape:label="text_path"
   id="layer3"
   inkscape:groupmode="layer"
   transform="translate(-3.8671467,-1.573543)" />
</svg>
